<svg xmlns="http://www.w3.org/2000/svg" viewBox="0 0 363.56 199.31"><defs><style>.cls-1{fill:#fff;}</style></defs><title>Asset 1</title><g id="Layer_2" data-name="Layer 2"><g id="Layer_1-2" data-name="Layer 1"><path class="cls-1" d="M330.92,192.64V180.78L339.16,194h.8V179.55l1.37-1.37H337.2l1.37,1.37v10l-7.14-11.42h-3.26l1.33,1.37v13.09L328.17,194h4.12Zm-12.22.51c-3.17,0-4.26-3.79-4.26-7.06s1.09-7.05,4.26-7.05,4.29,3.77,4.29,7.05-1.1,7.06-4.29,7.06m-6.33-7.06c0,4,2.28,8.26,6.33,8.26s6.35-4.23,6.35-8.26-2.28-8.26-6.35-8.26-6.33,4.24-6.33,8.26m-7.16,6.65V179.36h3l1.7,1.69v-2.87H298.77v2.87l1.72-1.69h3v13.38L302.24,194h4.23Zm-11.71-5.93v5.1a3.42,3.42,0,0,1-2.61,1.13c-3.51,0-5.28-3.54-5.28-6.95s2.23-6.94,5.28-6.94a2.41,2.41,0,0,1,1.94.75l1.74,1.71v-2.73a7,7,0,0,0-3.68-.92c-4.31,0-7.34,3.87-7.34,8.13s3,8.13,7.34,8.13a6.94,6.94,0,0,0,4.35-1.16v-6.25l1.23-1.25h-4.24ZM270,192.64V180.78L278.36,194h.71V179.55l1.37-1.37h-4.13l1.36,1.37v10l-7.13-11.42h-3.27l1.34,1.37v13.09L267.27,194h4.13Zm-11.35-14.46,1.26,1.26v13.3L258.68,194H263l-1.26-1.26v-13.3l1.26-1.26Zm-14.05,7.88h6.65v6.68L250,194h4.27L253,192.74v-13.3l1.27-1.26H250l1.26,1.26v5.45h-6.65v-5.45l1.26-1.26h-4.24l1.24,1.26v13.3L241.65,194h4.24l-1.26-1.26Zm-7.13,3.54a3.49,3.49,0,0,0-1.48-3l-3.22-2.34a3.72,3.72,0,0,1-1.74-2.71,2.22,2.22,0,0,1,2.28-2.25,9.61,9.61,0,0,1,1,.19l1.39,1.5,1.48-2.21-3.14-.58a2.69,2.69,0,0,0-.75-.08,4,4,0,0,0-4,3.89,4.6,4.6,0,0,0,2,3.62l3.25,2.33a2.69,2.69,0,0,1,1.13,2.31A2.62,2.62,0,0,1,233.1,193a2.73,2.73,0,0,1-1.1-.21l-1.51-1.78-1.36,2.47,3,.59a5.3,5.3,0,0,0,.94.11,4.55,4.55,0,0,0,4.4-4.62m-17.71-7.91,2.17,6.55h-4.42ZM216,192.77l1.15-3.36h5.23l1.1,3.36L222.23,194h4.48l-1.26-1.29-4.94-14.53h-.8l-5,14.53L213.4,194h3.81ZM199.15,194l3.62-11.45L206.29,194h.8l4.59-14.56,1.29-1.26h-3.81l1.23,1.23-3.35,11-3.25-11,1.24-1.23h-4.48l1.26,1.26.32,1.05-3,9.87-3.25-11,1.24-1.23h-4.48l1.28,1.26L198.35,194Zm-23.45-9.48-.6.58.06.22H177c-.29,2-.55,3.74-1,6.55-.6,4.17-1.11,5.64-1.53,6a.81.81,0,0,1-.56.21,3.33,3.33,0,0,1-1-.33.52.52,0,0,0-.63.15,1.35,1.35,0,0,0-.38.76c0,.44.58.66,1,.66a3.74,3.74,0,0,0,2.45-1.53c.76-.94,1.79-3.1,2.65-8.14.16-.93.34-1.87.72-4.32l2.27-.22.49-.58h-2.63c.67-4.12,1.23-5.37,2.19-5.37a2.39,2.39,0,0,1,1.71.73.44.44,0,0,0,.62,0,1.34,1.34,0,0,0,.45-.82c0-.45-.58-.94-1.33-.94a4.94,4.94,0,0,0-3.59,1.87,10.05,10.05,0,0,0-1.76,4.55Zm-10,5.84c0-3.3,1.67-5.09,2.36-5.37a1.87,1.87,0,0,1,.74-.18c1.11,0,1.76.84,1.76,2.56,0,2.9-1.47,5.53-2.41,5.84a2.17,2.17,0,0,1-.69.15c-1.24,0-1.76-1.34-1.76-3m3.81-6.38a5.3,5.3,0,0,0-2.41.81,7,7,0,0,0-3.2,6.1c0,1.56.73,3.3,2.8,3.3A5.74,5.74,0,0,0,170,192.7a8,8,0,0,0,2.34-5.62c0-1.85-1-3.1-2.85-3.1m-25.82-4.54,4,7.21v6.09L146.4,194h4.26l-1.26-1.26v-6.09l4.08-7.18,1.31-1.29h-3.91l1.23,1.23-3.33,5.93-3.16-5.93,1.23-1.23h-4.48Zm-8.34,13.3V179.36h3l1.69,1.69v-2.87H128.88v2.87l1.72-1.69h3v13.38L132.34,194h4.24ZM121,178.18l1.27,1.26v13.3L121,194h4.27L124,192.74v-13.3l1.26-1.26Zm-4.58,11.42a3.51,3.51,0,0,0-1.47-3l-3.23-2.34a3.72,3.72,0,0,1-1.74-2.71,2.22,2.22,0,0,1,2.28-2.25,8.7,8.7,0,0,1,1,.19l1.4,1.5,1.47-2.21-3.14-.58a2.64,2.64,0,0,0-.75-.08,4,4,0,0,0-4,3.89,4.57,4.57,0,0,0,2,3.62l3.24,2.33a2.69,2.69,0,0,1,1.13,2.31A2.62,2.62,0,0,1,112,193a2.76,2.76,0,0,1-1.1-.21l-1.5-1.78L108,193.52l3,.59a5.3,5.3,0,0,0,.94.11,4.55,4.55,0,0,0,4.4-4.62M96.05,179.36H98a3.1,3.1,0,0,1,3,3.16,3,3,0,0,1-3,2.93H96.05Zm0,13.38v-6.11h2.38l3.84,7.37h2.63l-1.23-1.26-3.54-6.49a4.16,4.16,0,0,0,3-3.7c0-2.69-2.49-4.37-5.12-4.37H93.07l1.23,1.26v13.3L93.07,194h4.24ZM88.94,194v-2.89l-1.69,1.72h-4.8v-6.66H86l1.26,1.26v-3.71L86,185H82.45v-5.63h4.8l1.69,1.69v-2.87H79.47l1.24,1.26v13.3L79.47,194ZM68.42,178.18H63.94l1.29,1.26L69.68,194h.8l4.59-14.56,1.29-1.26H72.55l1.24,1.23-3.36,11-3.24-11Zm-12.29,0,1.27,1.26v13.3L56.13,194H60.4l-1.26-1.26v-13.3l1.26-1.26ZM41.41,192.64V180.78L49.9,194h.55V179.55l1.36-1.37H47.68l1.37,1.37v10l-7.13-11.42H38.65L40,179.55v13.09L38.65,194h4.13ZM23.6,189.76a4.72,4.72,0,0,0,4.91,4.59c2.57,0,5.12-1.9,5.12-4.59V179.55L35,178.18H30.84l1.37,1.37v10.21A3.26,3.26,0,0,1,28.94,193a3.41,3.41,0,0,1-3.49-3.28V179.55l1.37-1.37H22.23l1.37,1.37Z"/><path class="cls-1" d="M62.67,117l1.82-1.83v-8.65h-8v8.65L58.33,117H51.45l1.82-1.83V97.59l-1.82-1.82h6.88L56.5,97.59v7.16h8V97.59l-1.82-1.82h6.88l-1.83,1.82v17.54L69.55,117Z"/><path class="cls-1" d="M88.67,97.59V111a6.15,6.15,0,0,1-.58,2.75,6.09,6.09,0,0,1-1.55,2A6.82,6.82,0,0,1,84.29,117a8.38,8.38,0,0,1-5.24,0,6.74,6.74,0,0,1-2.24-1.25,6,6,0,0,1-1.56-2,6.18,6.18,0,0,1-.58-2.73V97.59l-1.83-1.82h6.89L77.9,97.59V111a4.85,4.85,0,0,0,.35,1.88,4,4,0,0,0,.94,1.43,4.32,4.32,0,0,0,1.39.9,4.76,4.76,0,0,0,3.38,0,4.32,4.32,0,0,0,1.39-.9,4.12,4.12,0,0,0,1-1.43,4.85,4.85,0,0,0,.34-1.88V97.59l-1.83-1.82H90.5Z"/><path class="cls-1" d="M109.05,117l1.83-1.83V99.3l-6.61,11.76L97.65,99.3v15.83L99.48,117H93.79l1.83-1.83V97.59l-1.83-1.82h5.63l5.77,10.29,5.75-10.29h5l-1.83,1.82v17.54l1.83,1.83Z"/><path class="cls-1" d="M129.55,117l1.8-1.8L130,111h-7l-1.41,4.19,1.8,1.8h-5.69l1.86-1.86,6.73-19.33h2l6.58,19.33,1.85,1.86Zm-3-16.34-3,8.62h5.78Z"/><path class="cls-1" d="M180.46,116.88a11.81,11.81,0,0,1-3.4.38,7.53,7.53,0,0,1-3.73-.93,9.22,9.22,0,0,1-2.83-2.45,12,12,0,0,1-1.8-3.49,13,13,0,0,1,0-8.11,11,11,0,0,1,1.84-3.47,9.34,9.34,0,0,1,2.85-2.43,7.48,7.48,0,0,1,3.67-.91,10.44,10.44,0,0,1,3.29.42,17,17,0,0,1,2.07.83v4.35l-2.91-2.91a3.28,3.28,0,0,0-2.45-1,3.69,3.69,0,0,0-2.51.85,5.88,5.88,0,0,0-1.57,2.2,11.34,11.34,0,0,0-.81,3,23.23,23.23,0,0,0-.23,3.18,20.67,20.67,0,0,0,.26,3.19,11.75,11.75,0,0,0,.85,3,6.23,6.23,0,0,0,1.57,2.2,3.56,3.56,0,0,0,2.44.85,3.25,3.25,0,0,0,2.45-1l2.91-2.9V116A8.84,8.84,0,0,1,180.46,116.88Z"/><path class="cls-1" d="M185.86,117l1.82-1.83V97.59l-1.82-1.82h13.28v4.16l-2.42-2.43h-5.8v7.25h4.16l1.82-1.83v5.39l-1.82-1.83h-4.16v8.74h5.8l2.42-2.42V117Z"/><path class="cls-1" d="M236.17,97.5H232.6v17.63l1.83,1.83h-6.89l1.83-1.83V97.5h-3.56l-2.42,2.43V95.77h15.2v4.16Z"/><path class="cls-1" d="M241.58,117l1.83-1.83V97.59l-1.83-1.82h13.29v4.16l-2.43-2.43h-5.8v7.25h4.16l1.82-1.83v5.39l-1.82-1.83h-4.16v8.74h5.8l2.43-2.42V117Z"/><path class="cls-1" d="M271.24,117l-5.06-9.73h-2.82v7.9l1.83,1.83h-6.88l1.83-1.83V97.59l-1.83-1.82h7.63a10.45,10.45,0,0,1,2.66.35,7.43,7.43,0,0,1,2.36,1A5.65,5.65,0,0,1,272.61,99a5,5,0,0,1,.63,2.59,4.84,4.84,0,0,1-1.09,3.06,5.79,5.79,0,0,1-2.86,2l4.7,8.53,1.83,1.83Zm-1.68-15.38a4.22,4.22,0,0,0-1-3,3.35,3.35,0,0,0-2.6-1.13h-2.58v8h2.58a3.59,3.59,0,0,0,1.44-.28,3.34,3.34,0,0,0,1.13-.79,3.65,3.65,0,0,0,.76-1.23A4.35,4.35,0,0,0,269.56,101.58Z"/><path class="cls-1" d="M277.76,117l1.83-1.83V97.59l-1.83-1.82h13.29v4.16l-2.43-2.43h-5.8v7.25H287l1.83-1.83v5.39L287,106.48h-4.16v8.74h5.8l2.43-2.42V117Z"/><path class="cls-1" d="M312.12,106.36a13,13,0,0,1-.6,3.94,10.27,10.27,0,0,1-1.8,3.38,8.81,8.81,0,0,1-3,2.38,9.6,9.6,0,0,1-4.28.9h-7.93l1.83-1.83V97.59l-1.83-1.82h7.93a9.6,9.6,0,0,1,4.28.9,8.81,8.81,0,0,1,3,2.38,10.08,10.08,0,0,1,1.8,3.38A13,13,0,0,1,312.12,106.36Zm-3.83,0a16.12,16.12,0,0,0-.35-3.4,9.22,9.22,0,0,0-1.06-2.8,5.57,5.57,0,0,0-1.83-1.93,4.66,4.66,0,0,0-2.63-.73h-2.87v17.72h2.87a4.73,4.73,0,0,0,2.63-.72,5.66,5.66,0,0,0,1.83-1.93,9.18,9.18,0,0,0,1.06-2.81A16.12,16.12,0,0,0,308.29,106.36Z"/><polygon class="cls-1" points="138.83 116.96 144.52 116.96 142.69 115.13 142.69 99.63 153.86 116.98 154.96 116.98 154.96 97.59 156.79 95.77 151.1 95.77 152.93 97.59 152.93 109.57 144.13 95.77 138.83 95.77 140.66 97.59 140.66 115.13 138.83 116.96"/><polygon class="cls-1" points="202.59 116.96 208.27 116.96 206.45 115.13 206.45 99.63 217.62 116.98 218.72 116.98 218.72 97.59 220.54 95.77 214.86 95.77 216.68 97.59 216.68 109.57 207.88 95.77 202.59 95.77 204.41 97.59 204.41 115.13 202.59 116.96"/><path class="cls-1" d="M30.5,142.53a13.09,13.09,0,0,1-.6,3.91,10.11,10.11,0,0,1-1.79,3.37,8.86,8.86,0,0,1-3,2.37,9.48,9.48,0,0,1-4.26.89H13l1.81-1.81V133.8L13,132h7.89a9.62,9.62,0,0,1,4.26.88,8.77,8.77,0,0,1,3,2.38,10.06,10.06,0,0,1,1.79,3.36A13.21,13.21,0,0,1,30.5,142.53Zm-3.82,0a16,16,0,0,0-.34-3.39,9.15,9.15,0,0,0-1.06-2.79,5.67,5.67,0,0,0-1.81-1.92,4.65,4.65,0,0,0-2.63-.72H18v17.63h2.86a4.73,4.73,0,0,0,2.63-.71,5.79,5.79,0,0,0,1.81-1.93,9.06,9.06,0,0,0,1.06-2.79A16,16,0,0,0,26.68,142.53Z"/><path class="cls-1" d="M33.59,153.07l1.82-1.81V133.8L33.59,132H46.82v4.13l-2.42-2.41H38.62v7.21h4.14l1.82-1.82v5.36l-1.82-1.81H38.62v8.69H44.4l2.42-2.41v4.14Z"/><path class="cls-1" d="M63.26,146.75a7.46,7.46,0,0,1-.4,2.46,6.09,6.09,0,0,1-1.22,2.09,6,6,0,0,1-2.12,1.46,7.83,7.83,0,0,1-3.09.55,10.27,10.27,0,0,1-1.83-.15l-4.38-.78,2.11-3.87,2.32,2.92a2.48,2.48,0,0,0,.93.35,6.22,6.22,0,0,0,1.09.1,3.46,3.46,0,0,0,1.75-.4,3.67,3.67,0,0,0,1.12-1,3.83,3.83,0,0,0,.59-1.22,4.43,4.43,0,0,0,.18-1.13,3,3,0,0,0-.59-1.88,6,6,0,0,0-1.31-1.22l-4.33-2.83a6.61,6.61,0,0,1-2.08-2.1,5.16,5.16,0,0,1-.74-2.73,5.51,5.51,0,0,1,.53-2.5,5.27,5.27,0,0,1,1.4-1.77,5.87,5.87,0,0,1,1.94-1,7,7,0,0,1,2.14-.35,8.64,8.64,0,0,1,1.37.11c.44.07.86.14,1.25.22l3.22.6L61,136.24l-1.9-2.32a2.52,2.52,0,0,0-.72-.46,2.32,2.32,0,0,0-.92-.17,3.24,3.24,0,0,0-1.34.27,3.17,3.17,0,0,0-1,.69,2.84,2.84,0,0,0-.63.93,2.79,2.79,0,0,0-.21,1,3.25,3.25,0,0,0,.48,1.68,5.4,5.4,0,0,0,1.69,1.63L60.16,142a13.48,13.48,0,0,1,1.18.89,7,7,0,0,1,1,1.06,4.71,4.71,0,0,1,.68,1.27A4.4,4.4,0,0,1,63.26,146.75Z"/><path class="cls-1" d="M67.1,153.07l1.82-1.81V133.8L67.1,132H74l-1.81,1.81v17.46L74,153.07Z"/><path class="cls-1" d="M93.88,143.48v8.34c-.36.22-.73.42-1.12.61a7.22,7.22,0,0,1-1.29.49,10.72,10.72,0,0,1-1.67.33,18.46,18.46,0,0,1-2.26.12,9.58,9.58,0,0,1-4-.86,10.32,10.32,0,0,1-3.22-2.36,11.3,11.3,0,0,1-2.15-11.79,11.09,11.09,0,0,1,2.22-3.46,10.54,10.54,0,0,1,3.29-2.35,9.51,9.51,0,0,1,4-.87,11.49,11.49,0,0,1,3.07.36,11.64,11.64,0,0,1,2.23.87v4.35l-2.89-2.89A3.62,3.62,0,0,0,89,133.6a3.44,3.44,0,0,0-1.34-.25,4.74,4.74,0,0,0-2.72.82,7.52,7.52,0,0,0-2,2.13,10.59,10.59,0,0,0-1.26,2.95,12.72,12.72,0,0,0,0,6.56,10.72,10.72,0,0,0,1.26,2.95,7.48,7.48,0,0,0,2,2.12,5,5,0,0,0,4.5.51,3.52,3.52,0,0,0,1.19-.73v-7.18l-1.81-1.82H95.7Z"/><path class="cls-1" d="M141.14,145.33a19.72,19.72,0,0,0,.1-2.12V143l-1.66-1.67h5.09L143,143v.2a18.2,18.2,0,0,1-.23,2.95,10.41,10.41,0,0,1-.7,2.5l2,2.57,1.82,1.81h-4.42l-1.21-1.58a6.6,6.6,0,0,1-2.31,1.45,8.91,8.91,0,0,1-3,.49,8.51,8.51,0,0,1-2.62-.4,6.09,6.09,0,0,1-2.12-1.18,5.52,5.52,0,0,1-1.41-1.89,5.72,5.72,0,0,1-.53-2.52,5.39,5.39,0,0,1,.38-2.05,6.61,6.61,0,0,1,1-1.67,6.25,6.25,0,0,1,1.4-1.27,9.91,9.91,0,0,1,1.65-.85,8.76,8.76,0,0,1-2.09-5,4.21,4.21,0,0,1,.54-2.17,5.05,5.05,0,0,1,1.36-1.54,5.71,5.71,0,0,1,1.81-.91,7.06,7.06,0,0,1,1.93-.29,9.15,9.15,0,0,1,2.39.29,14.23,14.23,0,0,1,2.4,1v3.93l-2.71-2.71a5.27,5.27,0,0,0-.9-.76,2.1,2.1,0,0,0-1.16-.29,2.28,2.28,0,0,0-1.75.79,3.19,3.19,0,0,0-.72,2.22,4.73,4.73,0,0,0,.54,2.25,15.24,15.24,0,0,0,1.52,2.28l5,6.46A13.75,13.75,0,0,0,141.14,145.33Zm-9.09-.58a6,6,0,0,0-.49,2.51,4.78,4.78,0,0,0,1.12,3.37,3.75,3.75,0,0,0,2.93,1.22,5.31,5.31,0,0,0,1.84-.36,4.38,4.38,0,0,0,1.82-1.28l-5.74-7.45A6,6,0,0,0,132.05,144.75Z"/><path class="cls-1" d="M157.39,153.07l1.81-1.81V133.8L157.39,132h13.22v4.13l-2.41-2.41h-5.78v7.21h4.14l1.81-1.82v5.36l-1.81-1.81h-4.14v8.69h5.78l2.41-2.41v4.14Z"/><path class="cls-1" d="M211.39,143.48v8.34c-.36.22-.73.42-1.11.61a7.64,7.64,0,0,1-1.3.49,11,11,0,0,1-1.67.33,18.51,18.51,0,0,1-2.27.12,9.45,9.45,0,0,1-4-.86,10.24,10.24,0,0,1-3.23-2.36,11.24,11.24,0,0,1-2.95-7.62,10.83,10.83,0,0,1,.81-4.17,11.06,11.06,0,0,1,2.21-3.46,10.54,10.54,0,0,1,3.29-2.35,9.43,9.43,0,0,1,4-.87,10.7,10.7,0,0,1,5.31,1.23v4.35l-2.89-2.89a3.75,3.75,0,0,0-1.07-.77,3.46,3.46,0,0,0-1.35-.25,4.68,4.68,0,0,0-2.7.82,7.26,7.26,0,0,0-2,2.13,10.32,10.32,0,0,0-1.27,2.95,12.72,12.72,0,0,0,0,6.56,10.44,10.44,0,0,0,1.27,2.95,7.22,7.22,0,0,0,2,2.12,4.61,4.61,0,0,0,2.7.82,4.69,4.69,0,0,0,1.79-.31,3.52,3.52,0,0,0,1.19-.73v-7.18l-1.81-1.82h6.85Z"/><path class="cls-1" d="M216.18,153.07l1.82-1.81V133.8L216.18,132H223l-1.82,1.81v17.46l1.82,1.81Z"/><path class="cls-1" d="M247.91,153.07l1.82-1.81V133.8L247.91,132h13.22v4.13l-2.41-2.41H253v7.21h4.13l1.82-1.82v5.36l-1.82-1.81H253v8.69h5.77l2.41-2.41v4.14Z"/><path class="cls-1" d="M264.56,153.07l1.82-1.81V133.8L264.56,132h13.22v4.13l-2.41-2.41h-5.78v7.21h4.14l1.82-1.82v5.36l-1.82-1.81h-4.14v8.69h5.78l2.41-2.41v4.14Z"/><path class="cls-1" d="M294.08,153.07l-5-9.68h-2.8v7.87l1.82,1.81h-6.85l1.82-1.81V133.8L281.21,132h7.59a10.3,10.3,0,0,1,2.65.34,7.13,7.13,0,0,1,2.34,1,5.6,5.6,0,0,1,1.66,1.8,5.08,5.08,0,0,1,.63,2.58,4.8,4.8,0,0,1-1.1,3.05,5.74,5.74,0,0,1-2.83,1.95l4.67,8.5,1.81,1.81Zm-1.67-15.31a4.21,4.21,0,0,0-1-2.93,3.34,3.34,0,0,0-2.6-1.12h-2.56v7.95h2.56a3.59,3.59,0,0,0,1.44-.28,3.44,3.44,0,0,0,1.13-.79,3.77,3.77,0,0,0,.76-1.22A4.32,4.32,0,0,0,292.41,137.76Z"/><path class="cls-1" d="M300.87,153.07l1.82-1.81V133.8L300.87,132h6.85l-1.82,1.81v17.46l1.82,1.81Z"/><path class="cls-1" d="M348.8,143.48v8.34c-.36.22-.73.42-1.12.61a7.52,7.52,0,0,1-1.29.49,11,11,0,0,1-1.67.33,18.63,18.63,0,0,1-2.27.12,9.45,9.45,0,0,1-4-.86,10.13,10.13,0,0,1-3.23-2.36,11.24,11.24,0,0,1-3-7.62,10.83,10.83,0,0,1,.8-4.17,11.27,11.27,0,0,1,2.22-3.46,10.54,10.54,0,0,1,3.29-2.35,9.43,9.43,0,0,1,4-.87,11.65,11.65,0,0,1,3.09.36,11.44,11.44,0,0,1,2.21.87v4.35L345,134.37a3.65,3.65,0,0,0-1.08-.77,3.37,3.37,0,0,0-1.34-.25,4.68,4.68,0,0,0-2.7.82,7.13,7.13,0,0,0-2,2.13,10.32,10.32,0,0,0-1.27,2.95,12.72,12.72,0,0,0,0,6.56,10.44,10.44,0,0,0,1.27,2.95,7.1,7.1,0,0,0,2,2.12,4.61,4.61,0,0,0,2.7.82,4.76,4.76,0,0,0,1.79-.31,3.52,3.52,0,0,0,1.19-.73v-7.18l-1.82-1.82h6.85Z"/><polygon class="cls-1" points="98.38 153.07 104.04 153.07 102.22 151.26 102.22 135.83 113.34 153.1 114.44 153.1 114.44 133.8 116.25 131.99 110.59 131.99 112.41 133.8 112.41 145.72 103.65 131.99 98.38 131.99 100.2 133.8 100.2 151.26 98.38 153.07"/><polygon class="cls-1" points="174.04 153.07 179.69 153.07 177.87 151.26 177.87 135.83 188.99 153.1 190.09 153.1 190.09 133.8 191.91 131.99 186.25 131.99 188.07 133.8 188.07 145.72 179.31 131.99 174.04 131.99 175.85 133.8 175.85 151.26 174.04 153.07"/><polygon class="cls-1" points="226.76 153.07 232.42 153.07 230.6 151.26 230.6 135.83 241.72 153.1 242.81 153.1 242.81 133.8 244.63 131.99 238.97 131.99 240.79 133.8 240.79 145.72 232.03 131.99 226.76 131.99 228.58 133.8 228.58 151.26 226.76 153.07"/><polygon class="cls-1" points="311.44 153.07 317.11 153.07 315.28 151.26 315.28 135.83 326.4 153.1 327.5 153.1 327.5 133.8 329.32 131.99 323.66 131.99 325.47 133.8 325.47 145.72 316.72 131.99 311.44 131.99 313.26 133.8 313.26 151.26 311.44 153.07"/><line class="cls-1" y1="166.53" x2="363.56" y2="166.53"/><path class="cls-1" d="M204.17,0V12.39h8.71l-9.72,36.17L191.09,0H178.51c-.17.66-13,48.56-13,48.56l-8.95-36.17h9.06V0H129.22V12.39h8.06l14.07,56.28h19.52c.17-.66,9.31-35.41,9.31-35.41L189,68.67h19.52c.17-.66,14.8-56.28,14.8-56.28h8V0Z"/></g></g></svg>