<svg width="59" height="67" viewBox="0 0 59 67" fill="none" xmlns="http://www.w3.org/2000/svg">
<path d="M9 55.9H5.4C2.4 55.9 0 53.5 0 50.5V1.7C0 0.8 0.8 0 1.7 0C2.6 0 3.4 0.8 3.4 1.7V50.5C3.4 51.6 4.3 52.5 5.4 52.5H9C10.1 52.5 11 51.6 11 50.5V18.1C11 14.1 14.2 10.9 18.2 10.9C22.2 10.9 25.4 14.1 25.4 18.1V24.3C25.4 25.4 26.3 26.3 27.4 26.3H31C32.1 26.3 33 25.4 33 24.3V1.7C33 0.8 33.8 0 34.7 0C35.6 0 36.4 0.8 36.4 1.7V24.3C36.4 27.3 34 29.7 31 29.7H27.4C24.4 29.7 22 27.3 22 24.3V18.1C22 16 20.3 14.3 18.2 14.3C16.1 14.3 14.4 16 14.4 18.1V50.5C14.3 53.5 11.9 55.9 9 55.9Z" fill="white"/>
<path d="M56.4002 66.9C55.5002 66.9 54.7002 66.1 54.7002 65.2V16.3C54.7002 15.2 53.8002 14.3 52.7002 14.3H49.1002C48.0002 14.3 47.1002 15.2 47.1002 16.3V48.7C47.1002 52.7 43.9002 55.9 39.9002 55.9C35.9002 55.9 32.7002 52.7 32.7002 48.7V42.5C32.7002 41.4 31.8002 40.5 30.7002 40.5H27.1002C26.0002 40.5 25.1002 41.4 25.1002 42.5V65.1C25.1002 66 24.3002 66.8 23.4002 66.8C22.5002 66.8 21.7002 66 21.7002 65.1V42.6C21.7002 39.6 24.1002 37.2 27.1002 37.2H30.7002C33.7002 37.2 36.1002 39.6 36.1002 42.6V48.8C36.1002 50.9 37.8002 52.6 39.9002 52.6C42.0002 52.6 43.7002 50.9 43.7002 48.8V16.3C43.7002 13.3 46.1002 10.9 49.1002 10.9H52.7002C55.7002 10.9 58.1002 13.3 58.1002 16.3V65.1C58.1002 66.1 57.4002 66.9 56.4002 66.9Z" fill="white"/>
</svg>
